<svg width="224" height="66" viewBox="0 0 224 66" fill="none" xmlns="http://www.w3.org/2000/svg">
  <path
    d="M70.35 17.15C74.4833 17.15 76.55 19.35 76.55 23.75V50H69.55V39.15H64.5V50H57.5V23.75C57.5 19.35 59.5667 17.15 63.7 17.15H70.35ZM64.5 33.75H69.55V22.9C69.55 22.6333 69.45 22.4 69.25 22.2C69.0833 22 68.8667 21.9 68.6 21.9H65.45C65.1833 21.9 64.95 22 64.75 22.2C64.5833 22.4 64.5 22.6333 64.5 22.9V33.75ZM88.7676 25.1C90.4676 25.1 91.8342 25.5 92.8676 26.3V17.65H99.5676V50H93.9176V48.2C92.8842 49.7333 91.1676 50.5 88.7676 50.5H87.7176C83.5842 50.5 81.5176 48.3 81.5176 43.9V31.7C81.5176 27.3 83.5842 25.1 87.7176 25.1H88.7676ZM92.8676 44.7V30.9C92.8676 30.6333 92.7676 30.4 92.5676 30.2C92.4009 30 92.1842 29.9 91.9176 29.9H89.1676C88.9009 29.9 88.6676 30 88.4676 30.2C88.3009 30.4 88.2176 30.6333 88.2176 30.9V44.7C88.2176 44.9667 88.3009 45.2 88.4676 45.4C88.6676 45.6 88.9009 45.7 89.1676 45.7H91.9176C92.1842 45.7 92.4009 45.6 92.5676 45.4C92.7676 45.2 92.8676 44.9667 92.8676 44.7ZM115.625 34.7C119.758 34.7 121.825 36.9 121.825 41.3V43.9C121.825 48.3 119.758 50.5 115.625 50.5H110.075C105.942 50.5 103.875 48.3 103.875 43.9V42.35H110.075V44.55C110.075 44.8167 110.158 45.05 110.325 45.25C110.525 45.45 110.758 45.55 111.025 45.55H115.125C115.392 45.55 115.608 45.45 115.775 45.25C115.975 45.05 116.075 44.8167 116.075 44.55V41.55C116.075 41.2833 115.975 41.05 115.775 40.85C115.608 40.65 115.392 40.55 115.125 40.55H109.975C105.842 40.55 103.775 38.35 103.775 33.95V31.7C103.775 27.3 105.842 25.1 109.975 25.1H115.225C119.358 25.1 121.425 27.3 121.425 31.7V32.6H115.225V31.05C115.225 30.7833 115.125 30.55 114.925 30.35C114.758 30.15 114.542 30.05 114.275 30.05H110.475C110.208 30.05 109.975 30.15 109.775 30.35C109.608 30.55 109.525 30.7833 109.525 31.05V33.7C109.525 33.9667 109.608 34.2 109.775 34.4C109.975 34.6 110.208 34.7 110.475 34.7H115.625ZM151.913 32.3C154.08 33.0667 155.163 34.8333 155.163 37.6V43.4C155.163 47.8 153.097 50 148.963 50H136.113V17.65H148.563C152.697 17.65 154.763 19.85 154.763 24.25V27.2C154.763 29.8667 153.813 31.5667 151.913 32.3ZM146.813 22.4H143.113V31.05H146.813C147.08 31.05 147.297 30.95 147.463 30.75C147.663 30.55 147.763 30.3167 147.763 30.05V23.4C147.763 23.1333 147.663 22.9 147.463 22.7C147.297 22.5 147.08 22.4 146.813 22.4ZM148.163 44.2V36.95C148.163 36.6833 148.063 36.45 147.863 36.25C147.697 36.05 147.48 35.95 147.213 35.95H143.113V45.2H147.213C147.48 45.2 147.697 45.1 147.863 44.9C148.063 44.7 148.163 44.4667 148.163 44.2ZM177.741 31.7V43.9C177.741 48.3 175.675 50.5 171.541 50.5H165.891C161.758 50.5 159.691 48.3 159.691 43.9V31.7C159.691 27.3 161.758 25.1 165.891 25.1H171.541C175.675 25.1 177.741 27.3 177.741 31.7ZM171.041 45.3V30.25C171.041 29.9833 170.941 29.75 170.741 29.55C170.575 29.35 170.358 29.25 170.091 29.25H167.341C167.075 29.25 166.841 29.35 166.641 29.55C166.475 29.75 166.391 29.9833 166.391 30.25V45.3C166.391 45.5667 166.475 45.8 166.641 46C166.841 46.2 167.075 46.3 167.341 46.3H170.091C170.358 46.3 170.575 46.2 170.741 46C170.941 45.8 171.041 45.5667 171.041 45.3ZM193.799 34.7C197.932 34.7 199.999 36.9 199.999 41.3V43.9C199.999 48.3 197.932 50.5 193.799 50.5H188.249C184.115 50.5 182.049 48.3 182.049 43.9V42.35H188.249V44.55C188.249 44.8167 188.332 45.05 188.499 45.25C188.699 45.45 188.932 45.55 189.199 45.55H193.299C193.565 45.55 193.782 45.45 193.949 45.25C194.149 45.05 194.249 44.8167 194.249 44.55V41.55C194.249 41.2833 194.149 41.05 193.949 40.85C193.782 40.65 193.565 40.55 193.299 40.55H188.149C184.015 40.55 181.949 38.35 181.949 33.95V31.7C181.949 27.3 184.015 25.1 188.149 25.1H193.399C197.532 25.1 199.599 27.3 199.599 31.7V32.6H193.399V31.05C193.399 30.7833 193.299 30.55 193.099 30.35C192.932 30.15 192.715 30.05 192.449 30.05H188.649C188.382 30.05 188.149 30.15 187.949 30.35C187.782 30.55 187.699 30.7833 187.699 31.05V33.7C187.699 33.9667 187.782 34.2 187.949 34.4C188.149 34.6 188.382 34.7 188.649 34.7H193.799ZM215.43 34.7C219.563 34.7 221.63 36.9 221.63 41.3V43.9C221.63 48.3 219.563 50.5 215.43 50.5H209.88C205.746 50.5 203.68 48.3 203.68 43.9V42.35H209.88V44.55C209.88 44.8167 209.963 45.05 210.13 45.25C210.33 45.45 210.563 45.55 210.83 45.55H214.93C215.196 45.55 215.413 45.45 215.58 45.25C215.78 45.05 215.88 44.8167 215.88 44.55V41.55C215.88 41.2833 215.78 41.05 215.58 40.85C215.413 40.65 215.196 40.55 214.93 40.55H209.78C205.646 40.55 203.58 38.35 203.58 33.95V31.7C203.58 27.3 205.646 25.1 209.78 25.1H215.03C219.163 25.1 221.23 27.3 221.23 31.7V32.6H215.03V31.05C215.03 30.7833 214.93 30.55 214.73 30.35C214.563 30.15 214.346 30.05 214.08 30.05H210.28C210.013 30.05 209.78 30.15 209.58 30.35C209.413 30.55 209.33 30.7833 209.33 31.05V33.7C209.33 33.9667 209.413 34.2 209.58 34.4C209.78 34.6 210.013 34.7 210.28 34.7H215.43Z"
    fill="#D9D9D9" />
  <rect width="41.5045" height="65.3577" fill="#FF3737" />
  <path
    d="M14.5623 20.8321C17.5201 20.8321 18.999 22.4064 18.999 25.555V44.3394H13.9898V36.5752H10.376V44.3394H5.36687V25.555C5.36687 22.4064 6.84576 20.8321 9.80356 20.8321H14.5623ZM10.376 32.711H13.9898V24.9468C13.9898 24.7559 13.9182 24.589 13.7751 24.4458C13.6558 24.3027 13.5008 24.2312 13.31 24.2312H11.0558C10.865 24.2312 10.698 24.3027 10.5549 24.4458C10.4357 24.589 10.376 24.7559 10.376 24.9468V32.711ZM34.039 31.6734C35.5895 32.222 36.3647 33.4862 36.3647 35.466V39.6165C36.3647 42.7651 34.8858 44.3394 31.928 44.3394H22.7326V21.1899H31.6418C34.5996 21.1899 36.0785 22.7642 36.0785 25.9128V28.0238C36.0785 29.9321 35.3987 31.1486 34.039 31.6734ZM30.3895 24.589H27.7418V30.7789H30.3895C30.5803 30.7789 30.7354 30.7073 30.8546 30.5642C30.9977 30.4211 31.0693 30.2541 31.0693 30.0633V25.3046C31.0693 25.1137 30.9977 24.9468 30.8546 24.8036C30.7354 24.6605 30.5803 24.589 30.3895 24.589ZM31.3555 40.1889V35.0009C31.3555 34.81 31.284 34.6431 31.1409 34.5C31.0216 34.3568 30.8666 34.2853 30.6757 34.2853H27.7418V40.9045H30.6757C30.8666 40.9045 31.0216 40.833 31.1409 40.6899C31.284 40.5467 31.3555 40.3798 31.3555 40.1889Z"
    fill="#D9D9D9" />
</svg>